<?xml version="1.0"?>
<svg xmlns="http://www.w3.org/2000/svg" height="512px" viewBox="-35 0 512 512" width="512px"><g><path d="m391.753906 481.578125v-31.582031c12.097656-5.660156 20.5-17.945313 20.5-32.164063 0-19.574219-15.925781-35.5-35.5-35.5-19.574218 0-35.5 15.925781-35.5 35.5 0 14.21875 8.402344 26.503907 20.5 32.164063v31.582031c-28.90625-6.800781-50.5-32.789063-50.5-63.746094 0-36.117187 29.382813-65.5 65.5-65.5 5.132813 0 10.117188.613281 14.910156 1.734375v-251.898437h-107.507812v379.667969h-30v-439.140626h-24.351562v-42.695312h-205.453126v42.695312h-24.351562v469.304688l441.667969-.167969v-30h-49.910157v-.253906zm-38.753906-165.746094h-30v-42.667969h30zm0-85.332031h-30v-42.667969h30zm-173.667969 42.667969v42.667969h-30v-42.667969zm-30-42.667969v-42.667969h30v42.667969zm30 128v42.667969h-30v-42.667969zm0-213.332031h-30v-42.667969h30zm-104.667969-42.667969h30v42.667969h-30zm0 85.332031h30v42.667969h-30zm0 85.335938h30v42.667969h-30zm0 85.332031h30v42.667969h-30zm0 0" data-original="#000000" class="active-path" data-old_color="#000000" fill="#FFFFFF"/></g> </svg>
